<svg width="100%" height="100%" viewBox="0 0 138 62" fill="none" xmlns="http://www.w3.org/2000/svg">
<path d="M81.3325 11.1227C81.5777 11.3686 81.8948 11.5333 82.2551 11.4489C85.3815 10.7154 88.444 9.71673 91.2796 8.18983C91.6207 8.0062 91.8827 7.58754 92.0114 7.23871C92.1583 6.83993 92.2178 6.29244 92.0996 5.87685C92.0015 5.53223 91.8316 5.1286 91.4893 4.95968C91.1616 4.79804 90.837 4.80919 90.511 4.98474C89.6022 5.4742 88.6676 5.91193 87.7121 6.30198C85.8994 7.01209 84.0255 7.54163 82.1313 7.986C81.31 8.17868 80.8753 9.21935 80.9305 9.99217C80.9583 10.3824 81.0446 10.8342 81.3325 11.1227Z" fill="white"></path>
<path d="M131.363 12.0507C131.234 11.7787 131.028 11.4497 130.691 11.4213C130.335 11.3914 130.105 11.5795 129.857 11.8121C128.611 12.982 127.599 14.3721 126.362 15.5489C125.954 15.9121 125.521 16.2435 125.061 16.539C125.204 16.2378 125.35 15.9384 125.504 15.6428C125.978 14.731 126.505 13.8479 127.078 12.995C127.302 12.6734 127.519 12.3566 127.666 11.9833C127.871 11.4643 127.882 10.7613 127.661 10.2453C127.519 9.91329 127.126 9.44339 126.696 9.63332C126.459 9.73807 126.317 9.83263 126.127 10.0295C126.066 10.0926 126.008 10.1587 125.949 10.2238C125.812 10.3766 125.676 10.5303 125.54 10.6847C125.267 10.996 124.997 11.3102 124.729 11.6266C124.219 12.2297 123.718 12.8405 123.218 13.4517C122.238 14.6479 121.258 15.8445 120.211 16.9827C119.92 17.2988 119.625 17.611 119.323 17.9179C119.503 17.5601 119.677 17.1991 119.847 16.8364C120.519 15.3985 121.128 13.9316 121.83 12.5075C122.035 12.0915 122.248 11.6789 122.471 11.2721C122.578 11.0763 122.688 10.882 122.8 10.6892C122.86 10.5861 122.924 10.4847 122.982 10.3806C123.153 10.0764 123.235 9.75924 123.318 9.4206C123.404 9.06385 123.361 8.47756 123.201 8.13956C123.055 7.83066 122.872 7.60807 122.529 7.51012C122.002 7.35963 121.537 8.05227 121.222 8.39399C121.014 8.61932 120.806 8.8445 120.598 9.06934C120.139 9.56543 119.678 10.0606 119.217 10.5552C118.23 11.6148 117.24 12.6722 116.251 13.7304C115.475 14.5607 114.698 15.3901 113.923 16.2221C114.187 15.4448 114.446 14.665 114.701 13.8839C114.93 13.1822 115.164 12.4817 115.383 11.7771C115.629 10.9877 115.701 9.96162 115.13 9.2811C114.753 8.8314 114.127 8.70726 113.636 9.06433C113.171 9.40233 112.902 9.98635 112.602 10.4661C112.387 10.8093 112.173 11.1526 111.958 11.4961C111.556 12.139 111.154 12.782 110.75 13.4239C110.024 14.5787 109.293 15.7312 108.526 16.8601C107.809 17.9055 107.054 18.953 106.136 19.8304C105.837 20.0921 105.516 20.3282 105.165 20.5148C104.913 20.62 104.651 20.6935 104.38 20.7296C104.383 20.7162 104.385 20.7028 104.388 20.6895C104.397 20.6536 104.407 20.6176 104.417 20.5819C104.531 20.1836 104.67 19.7925 104.821 19.4067C104.896 19.2127 104.977 19.0207 105.058 18.829L105.06 18.8248C105.109 18.7155 105.158 18.6067 105.208 18.4981C105.914 16.971 106.732 15.4947 107.594 14.0514C107.781 13.7391 107.969 13.4273 108.164 13.12C108.364 12.8038 108.439 12.3932 108.466 12.0294C108.492 11.6899 108.481 11.2973 108.332 10.9829C108.237 10.7829 108.115 10.5924 107.933 10.4606C107.681 10.2778 107.323 10.3444 107.085 10.5062C104.97 11.9421 102.876 13.4121 100.835 14.9519L100.835 14.9468C100.84 14.8989 100.844 14.8509 100.849 14.803C100.867 14.6243 100.889 14.4458 100.915 14.2678C100.941 14.0908 100.971 13.9143 101.004 13.7386C101.02 13.6557 101.062 13.481 101.088 13.3727C101.158 13.1229 101.231 12.8746 101.32 12.6305C101.35 12.5492 101.383 12.4697 101.415 12.3895C101.456 12.2979 101.529 12.1343 101.566 12.0616C101.623 11.9502 101.685 11.8419 101.747 11.7332C102.06 11.3353 102.368 10.9333 102.667 10.5238C102.93 10.1624 103.103 9.78818 103.174 9.34155C103.235 8.95377 103.23 8.42681 103.057 8.06052C102.928 7.78847 102.722 7.45952 102.385 7.43107C102.039 7.40198 101.784 7.57979 101.551 7.82193C101.105 8.28795 100.719 8.79665 100.386 9.33573C99.3109 10.664 98.1505 11.9169 96.911 13.1013C96.7645 13.2412 96.6171 13.3803 96.4697 13.5193C96.4249 12.8879 96.2722 12.235 95.978 11.686C95.6379 11.0513 95.1586 10.5305 94.4262 10.379C93.7904 10.2476 93.1716 10.4797 92.6072 10.7403C92.0383 11.0029 91.5255 11.3742 91.0436 11.7712C89.8608 12.7455 88.805 13.8569 87.8136 15.0227C87.9442 14.7741 88.0756 14.5255 88.1999 14.2738C88.4697 13.7279 88.6296 13.0605 88.4765 12.4516C88.37 12.0279 88.1775 11.614 87.7494 11.4523C87.072 11.1964 86.482 11.8841 86.0683 12.3305C85.5672 12.8716 85.0555 13.3993 84.5749 13.9596C83.9548 14.6823 83.3583 15.4251 82.7687 16.1727C82.0851 17.0392 81.4115 17.9134 80.7374 18.7873C81.1876 17.8347 81.5945 16.8487 81.7792 15.8177C81.9161 15.0539 81.9027 14.0986 81.3995 13.4578C81.0281 12.9847 80.4893 12.8716 79.9215 12.9881C79.6163 13.0508 79.3282 13.1921 79.047 13.3196C78.766 13.4472 78.4954 13.5957 78.2306 13.754C77.7785 14.0242 77.3416 14.3199 76.9128 14.6267C76.8581 14.4862 76.7834 14.3563 76.6806 14.2484C76.4621 14.0196 76.1372 13.8183 75.804 13.9297C73.3212 14.7596 70.9932 16.032 68.9766 17.7028C67.9072 18.5889 66.905 19.5397 66.0093 20.6032C65.0138 21.7856 64.0788 23.0529 63.4718 24.4822C63.2213 25.0722 63.0515 25.7238 62.9864 26.3757C61.9595 27.1626 60.9283 27.9441 59.8941 28.7216C61.3284 26.5242 62.7409 24.3126 64.1105 22.0745C64.5241 21.3985 64.9397 20.722 65.3201 20.0263C65.5224 19.6561 65.7316 19.2761 65.8698 18.8775C66.1031 18.205 66.1491 17.2904 65.6464 16.7139C65.398 16.4289 65.0934 16.3285 64.7346 16.3797C64.4533 16.4198 64.2356 16.6241 64.0322 16.7982C63.6955 17.0864 63.4154 17.4497 63.1337 17.7899C62.9205 18.0476 62.7111 18.3083 62.5028 18.5699C62.3625 18.1916 62.179 17.8383 61.9404 17.4977C61.6932 17.145 61.3394 16.8149 60.9492 16.6288C59.4861 15.9312 57.9109 16.7205 56.7093 17.5898C55.5494 18.4287 54.5085 19.4199 53.5077 20.4432C53.4592 20.4799 53.4117 20.519 53.3664 20.5626C53.1797 20.7433 52.9851 20.9142 52.784 21.0781C52.4847 21.2924 52.1683 21.4787 51.8308 21.6258C51.5563 21.714 51.2754 21.7711 50.988 21.795C50.8278 21.7906 50.6683 21.7792 50.5108 21.7547C50.5147 21.6322 50.5168 21.5095 50.5157 21.3865C50.505 20.1756 50.1964 18.8272 49.4126 17.8741C48.948 17.3094 48.268 17.0263 47.5448 17.0929C47.1596 17.1283 46.8174 17.3087 46.5316 17.5639C46.3811 17.5733 46.2332 17.6153 46.1008 17.7039C43.9564 19.1411 42.0018 20.8148 40.248 22.6863C40.2079 22.7201 40.1696 22.7561 40.135 22.7964C40.0962 22.8416 40.0571 22.8866 40.0181 22.9318C39.576 23.4127 39.1482 23.9075 38.7327 24.4136C36.7998 26.6235 34.8114 28.7868 32.6423 30.7684C31.8677 31.4759 31.0696 32.1577 30.2439 32.805C29.2721 33.5471 28.2609 34.2379 27.1939 34.8365C26.8465 35.0314 26.5837 35.422 26.4479 35.7854C26.299 36.1837 26.2407 36.7329 26.3629 37.1477C26.4657 37.4967 26.644 37.8987 26.9918 38.0678C27.3211 38.2278 27.6673 38.2299 27.994 38.0466C30.2013 36.8081 32.2024 35.1963 34.0656 33.4921C34.5833 33.0185 35.0902 32.5332 35.5897 32.0407C35.6122 32.1344 35.6369 32.2277 35.6662 32.3195C36.0071 33.3903 36.7348 34.3448 37.7818 34.8084C38.8192 35.2678 39.9675 35.2974 41.059 35.0116C44.0694 34.2231 46.2639 31.9385 47.8458 29.3496C47.6554 30.2406 47.5771 31.1479 47.8029 32.0525C48.0519 33.05 48.6681 34.0207 49.7487 34.2203C50.5376 34.3661 51.3205 34.0173 52.0055 33.6683C53.0095 33.1567 53.917 32.4422 54.7634 31.6864C54.3606 32.289 53.9561 32.8905 53.5518 33.4921C52.0914 34.6023 50.6383 35.7231 49.2007 36.8632C47.4224 37.3396 45.6492 37.8345 43.8824 38.3524C41.9601 38.9159 40.0451 39.5048 38.1393 40.122C36.3123 40.7136 34.4934 41.3309 32.6849 41.977C30.8614 42.6286 29.0487 43.3106 27.247 44.0202C25.6203 44.661 24.004 45.3285 22.4009 46.0265C20.8731 46.6917 19.3573 47.3847 17.8568 48.1093C16.4459 48.7907 15.0485 49.5001 13.6687 50.2424C12.3707 50.9407 11.0881 51.6678 9.82578 52.4291C9.22591 52.7909 8.63073 53.1606 8.04089 53.5385C8.05011 53.5259 8.05932 53.5133 8.06853 53.5005C9.77065 51.1521 11.4537 48.7898 13.1322 46.4247C14.3964 44.6432 15.6594 42.861 16.9254 41.0808C16.9845 41.0388 17.0439 40.997 17.1029 40.9548C18.744 39.7812 20.3508 38.5605 21.9391 37.3166C23.6163 36.0033 25.2674 34.6566 26.896 33.2836C28.627 31.8243 30.3329 30.335 32.013 28.8173C33.7256 27.2702 35.4117 25.6937 37.0665 24.085C38.6888 22.5079 40.2813 20.9 41.8332 19.2536C43.294 17.7041 44.7197 16.1208 46.0897 14.4903C47.3975 12.9336 48.664 11.3371 49.8402 9.6781C50.329 8.98836 50.8016 8.28698 51.2499 7.57009C51.8106 6.67328 52.4434 5.72039 52.7254 4.69717C52.9454 3.89881 53.1114 3.01348 52.8396 2.20299C52.7144 1.82927 52.5616 1.46654 52.2719 1.18544C51.9787 0.900944 51.723 0.775992 51.3401 0.65492C50.8913 0.512996 50.3692 0.560035 49.9137 0.649586C49.3483 0.760798 48.7956 0.98209 48.2764 1.22682C46.9731 1.84107 45.7974 2.71929 44.6848 3.6245C43.5822 4.52179 42.5348 5.49392 41.5179 6.48674C39.4532 8.50229 37.4523 10.583 35.5102 12.7167C33.5986 14.8169 31.7437 16.9684 29.9365 19.1591C28.0719 21.4192 26.2557 23.7194 24.475 26.0461C22.7648 28.2808 21.089 30.5418 19.4336 32.8174C18.1049 34.644 16.7909 36.4811 15.4808 38.3209C14.1844 39.2295 12.8663 40.1098 11.5041 40.9163C10.5768 41.4654 9.62469 41.9941 8.62265 42.3965C8.29726 42.515 7.95959 42.6176 7.61609 42.6545C7.58554 42.6522 7.55531 42.6486 7.52508 42.6441C7.41064 42.6003 7.29151 42.5854 7.1672 42.6032C6.98745 42.5883 6.81934 42.6323 6.66303 42.7353C6.32616 42.9229 6.03617 43.3251 5.91542 43.684C5.7714 44.1125 5.70027 44.605 5.83072 45.0463C5.92706 45.3724 6.11279 45.839 6.46162 45.9667C6.66691 46.0419 6.85749 46.1253 7.07442 46.1403C7.31204 46.157 7.55725 46.1465 7.79406 46.1161C8.1382 46.072 8.47442 45.9675 8.79965 45.8495C9.46644 45.6077 10.1101 45.3172 10.7391 44.9962C10.3398 45.5584 9.94119 46.1211 9.54112 46.6826C7.86389 49.0364 6.17713 51.3833 4.46725 53.7134C3.60115 54.8936 2.72908 56.0694 1.84957 57.2395C1.31776 57.947 0.645802 58.6623 0.538146 59.5809C0.471549 60.1491 0.5375 60.7955 0.942582 61.2383C1.20574 61.5258 1.59547 61.6586 1.97937 61.5836C2.38752 61.5039 2.72779 61.2129 3.03588 60.9585C3.49172 60.5822 3.95079 60.2104 4.41665 59.8465C5.60393 58.9355 6.82662 58.071 8.07629 57.2478C9.49279 56.3147 10.9426 55.4325 12.4158 54.5919C13.999 53.6887 15.6093 52.8334 17.2395 52.0182C18.9939 51.1408 20.7714 50.3095 22.5658 49.5173C24.4706 48.6762 26.3949 47.8791 28.3338 47.1196C28.511 47.0502 28.6883 46.9815 28.8656 46.9128C31.1849 46.0201 33.5236 45.1785 35.8779 44.3829C38.1854 43.6032 40.5082 42.8688 42.8417 42.1708C41.7054 43.1801 40.5897 44.2126 39.5028 45.275C38.0013 46.7428 36.5025 48.243 35.2383 49.9233C33.81 51.8218 32.6685 53.9436 32.1729 56.2835C31.927 57.4445 31.9217 58.7688 32.4523 59.8565C32.7003 60.3649 33.0708 60.8646 33.5902 61.117C33.9702 61.3018 34.3728 61.4198 34.7952 61.413C35.2438 61.4059 35.6587 61.3527 36.0787 61.1912C36.5264 61.0191 36.9545 60.8185 37.3581 60.5592C38.1191 60.0701 38.8163 59.46 39.4493 58.8152C40.9044 57.3326 42.0183 55.5628 43.1408 53.8272C45.4883 50.1971 47.8977 46.6076 50.3159 43.0245C51.1207 41.832 51.9265 40.6402 52.732 39.4481C55.2294 38.8162 57.7359 38.2194 60.2504 37.6591C63.267 36.987 66.2946 36.3642 69.3308 35.7867C71.5161 35.3709 73.7062 34.9802 75.8997 34.6104C75.4594 35.7844 75.1151 37.0022 75.0616 38.2546C75.0477 38.5802 75.0771 38.915 75.1426 39.2329C75.2439 39.7253 75.576 40.2694 76.138 40.243C76.6939 40.217 77.1287 39.6414 77.276 39.1443C77.779 37.4472 78.3428 35.7695 78.9542 34.1091C93.5293 31.7913 108.253 29.4663 122.999 28.8871C123.837 28.8542 124.348 28.3196 124.31 27.8308C124.255 27.1155 123.876 26.6422 122.943 26.6422C108.765 27.1998 94.6636 28.7527 80.5536 30.3716C80.7345 30.0407 80.9172 29.7107 81.1024 29.3823C81.9058 27.9577 82.751 26.5566 83.6306 25.1776C83.7473 25.5452 83.8981 25.9005 84.098 26.2325C84.3397 26.6338 84.6543 27.0232 85.0938 27.2175C85.5614 27.4243 86.0237 27.472 86.5277 27.3519C87.5398 27.1109 88.3962 26.3754 89.1425 25.6935C89.9858 24.9231 90.7324 24.0475 91.4408 23.1536C92.1693 22.234 92.8632 21.2855 93.53 20.318C94.259 19.4516 95.0378 18.6281 95.8601 17.8404C96.7881 16.9515 97.7363 16.0855 98.6522 15.186C98.617 15.686 98.6044 16.1846 98.6103 16.6781C97.2402 17.7752 95.9026 18.9197 94.6636 20.1616C93.8378 20.9892 92.9943 21.9038 92.4609 22.955C92.13 23.6069 91.9239 24.2869 91.9035 25.0211C91.8883 25.5713 92.0173 26.1827 92.3649 26.6245C92.8479 27.2387 93.6063 27.2723 94.3177 27.1991C94.9759 27.1314 95.6197 26.908 96.222 26.6422C97.0269 26.2869 97.8029 25.8639 98.5003 25.325C99.2888 24.7156 99.9724 24.0032 100.487 23.1473C101.125 22.0848 101.374 20.803 101.187 19.5805C101.129 19.2009 101.064 18.8233 101.005 18.4447C101.866 17.7915 102.738 17.1529 103.615 16.5238C103.592 16.5735 103.568 16.6227 103.545 16.6726C103.117 17.62 102.696 18.5865 102.438 19.5966C102.153 20.712 101.92 21.971 102.382 23.0762C102.542 23.4598 102.816 23.8532 103.202 24.0365C103.647 24.2478 104.053 24.248 104.536 24.1641C105.263 24.038 105.958 23.645 106.527 23.1861C107.316 22.5494 107.992 21.7858 108.61 20.9853C109.466 19.875 110.241 18.7006 111.004 17.5245C111.094 17.3853 111.183 17.2452 111.272 17.1057C111.056 17.7085 110.835 18.3098 110.605 18.9077C110.45 19.31 110.292 19.7109 110.129 20.1103C110.054 20.2957 109.978 20.4808 109.9 20.6654C109.86 20.7622 109.819 20.8589 109.778 20.9554C109.722 21.087 109.537 21.5103 109.786 20.9383C109.597 21.3733 109.46 21.78 109.466 22.2634C109.471 22.6066 109.551 23.1077 109.791 23.3819C109.988 23.6077 110.266 23.7902 110.583 23.6874C110.896 23.5863 111.175 23.3253 111.323 23.0324C111.608 22.6593 111.939 22.3132 112.25 21.9665C112.946 21.1895 113.654 20.4226 114.363 19.6571C115.44 18.4939 116.522 17.3352 117.604 16.1772C117.452 16.472 117.297 16.7654 117.135 17.0549C116.912 17.4534 116.652 17.8366 116.462 18.2524C116.089 19.0687 115.875 19.9632 116.051 20.8605C116.161 21.4206 116.454 22.0439 116.979 22.327C117.524 22.6213 118.063 22.5216 118.592 22.2539C119.03 22.0323 119.372 21.6618 119.723 21.3261C120.708 20.3827 121.628 19.3755 122.516 18.3403C122.674 18.9449 123.065 19.5095 123.629 19.7958C123.888 19.9275 124.187 20.0494 124.483 20.0633C124.925 20.0841 125.237 19.9889 125.61 19.7537C126.646 19.1022 127.544 18.2443 128.364 17.3418C129.227 16.3914 130.035 15.3943 130.973 14.5139C131.254 14.2502 131.423 13.6913 131.48 13.3318C131.541 12.944 131.536 12.417 131.363 12.0507ZM28.2413 25.7559C28.3944 25.5607 28.5483 25.3661 28.702 25.1713C30.7971 22.5276 32.95 19.9291 35.1807 17.3984C37.4716 14.7998 39.8436 12.2722 42.3075 9.83683C43.6359 8.52379 44.9953 7.22481 46.4673 6.07148C47.3777 5.38158 48.354 4.72902 49.4129 4.29419C49.6526 4.21095 49.8982 4.14241 50.1481 4.10022C49.754 4.8336 49.3009 5.54144 48.8447 6.23474C48.2824 7.08919 47.6896 7.92344 47.0772 8.7425C46.7595 9.16714 46.4354 9.58709 46.1078 10.0041C44.7467 11.7156 43.3157 13.3709 41.8418 14.9859C40.2071 16.7771 38.5198 18.5204 36.7969 20.2267C35.0188 21.9877 33.2017 23.7094 31.3532 25.3963C29.5314 27.0586 27.679 28.6875 25.7966 30.2809C24.9082 31.0328 24.0133 31.7771 23.111 32.5124C24.7909 30.2375 26.4962 27.9811 28.2413 25.7559ZM66.5327 24.2708C67.4738 23.0185 68.5501 21.8737 69.7406 20.856C71.1482 19.701 72.6996 18.7305 74.3589 17.9816C74.3654 18.0555 74.3757 18.127 74.3904 18.1961C74.2025 18.7234 73.9925 19.2429 73.7631 19.7542C73.2142 20.9045 72.5635 22.0032 71.8167 23.0363C70.9311 24.2054 69.9242 25.2784 68.8046 26.2267C68.2667 26.6684 67.7026 27.0953 67.0746 27.3955C66.8588 27.4746 66.6381 27.5306 66.4096 27.5573C66.2743 27.5499 66.1419 27.5279 66.0103 27.4935C65.9131 27.4459 65.8208 27.3908 65.7331 27.3275C65.6626 27.2539 65.5978 27.176 65.5372 27.0942C65.4969 27.0177 65.4607 26.9395 65.4271 26.86C65.4062 26.7814 65.3878 26.7022 65.3726 26.6224C65.3708 26.5853 65.3699 26.548 65.3694 26.511C65.3817 26.4197 65.3967 26.3288 65.4148 26.2385C65.4625 26.0893 65.5165 25.9425 65.5764 25.7978C65.8478 25.2611 66.1805 24.7581 66.5327 24.2708ZM44.9906 28.635C44.4663 29.2758 43.8848 29.8667 43.2358 30.3816C42.6835 30.7804 42.0907 31.1167 41.4598 31.3755C40.9733 31.5464 40.4719 31.6673 39.9575 31.7058C39.6429 31.6996 39.3329 31.6578 39.0306 31.5711C38.8304 31.4848 38.6412 31.3783 38.4631 31.252C38.3766 31.1707 38.296 31.0841 38.2205 30.9928C38.1839 30.9299 38.149 30.866 38.1178 30.8006C38.1081 30.7655 38.0976 30.7302 38.0892 30.6948C38.0868 30.6544 38.0853 30.6135 38.0844 30.573C38.0947 30.4973 38.1068 30.422 38.1215 30.347C38.1833 30.1558 38.2557 29.9687 38.3372 29.7849C38.8017 28.9019 39.4113 28.089 40.0296 27.305C40.1507 27.1538 40.2748 27.0053 40.3985 26.8564C40.7035 26.5057 41.0069 26.1534 41.3102 25.8012C42.5597 24.4198 43.9265 23.1472 45.3964 22.0004C45.5452 21.8876 45.6954 21.7767 45.8462 21.6667C45.9406 21.9284 46.0533 22.1826 46.1828 22.424C46.5095 23.0329 46.9425 23.5789 47.4581 24.0344C47.2291 24.6855 46.9559 25.3221 46.6587 25.9438C46.1821 26.8878 45.633 27.7944 44.9906 28.635ZM53.118 29.2405C52.4514 29.7748 51.7401 30.2704 50.9581 30.6177C50.7911 30.6796 50.6217 30.7281 50.4452 30.7534C50.3852 30.7487 50.3257 30.7403 50.2667 30.728C50.2397 30.7134 50.2127 30.6986 50.1869 30.6822C50.1809 30.6753 50.1752 30.6678 50.1693 30.6609C50.1633 30.6488 50.1565 30.6371 50.1508 30.625C50.1426 30.592 50.1335 30.5592 50.1266 30.5259C50.1222 30.4509 50.1201 30.3758 50.1203 30.3006C50.1408 30.1506 50.1696 30.0019 50.2024 29.854C50.3421 29.3522 50.5195 28.8636 50.7315 28.388C51.0874 27.6769 51.514 27.0058 51.9818 26.3632C52.6405 25.5009 53.3577 24.6954 54.103 23.9096C54.3371 23.7205 54.5636 23.5219 54.7795 23.3128C54.9038 23.1926 55.0089 23.0445 55.0957 22.8842C55.7022 22.2741 56.3271 21.6822 56.9886 21.1324C57.5256 20.7065 58.0947 20.3096 58.7182 20.0234C58.9568 19.9358 59.2023 19.8716 59.4549 19.8443C59.5675 19.8509 59.6787 19.8669 59.7879 19.8939C59.8686 19.9335 59.9457 19.9789 60.0194 20.0302C60.0797 20.0922 60.136 20.1577 60.1885 20.2264C60.2271 20.299 60.2619 20.3733 60.2944 20.4487C60.3273 20.567 60.3547 20.6866 60.3763 20.8075C60.3826 20.9066 60.3855 21.0058 60.3852 21.1051C60.3805 21.146 60.3771 21.1871 60.3715 21.2276C58.5599 23.4989 56.7392 25.7757 54.6714 27.82C54.1722 28.3135 53.6567 28.7903 53.118 29.2405ZM42.4873 49.9986C41.6797 51.2333 40.9083 52.4964 40.0699 53.7102C39.8822 53.9819 39.6895 54.2497 39.4931 54.5151C38.8257 55.3829 38.096 56.2008 37.2587 56.9083C36.8465 57.2306 36.4088 57.5226 35.9345 57.7442C35.6888 57.8347 35.436 57.8998 35.1759 57.9271C35.0471 57.9202 34.9202 57.9024 34.7952 57.8714C34.7335 57.8426 34.6729 57.8108 34.6143 57.7758C34.5979 57.7563 34.5822 57.7361 34.5663 57.716C34.5445 57.674 34.524 57.6312 34.5047 57.5879C34.4949 57.5481 34.4865 57.508 34.4784 57.4679C34.4744 57.3894 34.4727 57.3106 34.4734 57.2321C34.4971 57.0292 34.5309 56.8281 34.5739 56.6285C34.7354 56.0467 34.9439 55.4752 35.1911 54.9243C35.6359 54.0244 36.1715 53.1732 36.7637 52.3628C37.9654 50.7938 39.394 49.3857 40.8044 48.0068C42.2706 46.5735 43.789 45.1939 45.3404 43.8534C46.1784 43.1294 47.0272 42.4178 47.8825 41.7143C47.9728 41.6403 48.0643 41.5676 48.1548 41.4938C47.0923 43.0692 46.0316 44.6459 44.9782 46.2275C44.143 47.4813 43.312 48.7378 42.4873 49.9986ZM62.7609 33.6161C60.6662 34.0621 58.5762 34.5318 56.4922 35.0256C57.984 33.9041 59.4779 32.7859 60.9691 31.6637C61.8746 30.9824 62.7769 30.2969 63.6766 29.6079C64.1105 30.2708 64.6652 30.7643 65.4571 30.9803C66.2743 31.2031 67.1349 30.9184 67.8624 30.556C68.45 30.2632 68.9763 29.8553 69.485 29.4442C70.0433 28.993 70.5871 28.5236 71.101 28.0222C72.0807 27.0659 72.9442 26.0047 73.7317 24.8861C75.1266 22.9053 76.2049 20.6585 76.8827 18.3266C77.2973 18.0153 77.7174 17.7112 78.1474 17.4217C78.4144 17.2418 78.6862 17.0658 78.9647 16.9018C78.4321 18.0545 77.8366 19.1783 77.2383 20.2978C76.523 21.6364 75.7947 22.9681 75.0973 24.316C74.7326 25.0211 74.3762 25.7307 74.041 26.4504C73.8756 26.8055 73.7586 27.1433 73.7308 27.5397C73.7069 27.8816 73.7248 28.2763 73.8835 28.5891C73.9873 28.7936 74.1208 28.9838 74.3117 29.1161C74.581 29.3026 74.9522 29.2379 75.2113 29.0786C75.6359 28.817 76.0147 28.4745 76.3805 28.1392C76.7611 27.7904 77.119 27.4168 77.467 27.0357C78.3389 26.081 79.1532 25.0741 79.9559 24.0613C80.5121 23.3594 81.0601 22.6509 81.6066 21.9414C80.3813 24.4922 79.2096 27.0716 78.1408 29.6923C77.9426 30.0751 77.7485 30.46 77.5585 30.8469C77.2268 30.9009 76.8951 30.9543 76.5636 31.0092C74.2201 31.3983 71.8806 31.8129 69.5463 32.2541C67.2794 32.6826 65.0173 33.1357 62.7609 33.6161ZM88.5468 22.38C88.3076 22.6262 88.0593 22.8635 87.8025 23.0914C87.4746 23.3626 87.1266 23.6145 86.7471 23.8062C86.603 23.8611 86.4548 23.903 86.3026 23.926C86.2403 23.9216 86.1786 23.913 86.1176 23.8995C86.0843 23.8812 86.052 23.8615 86.0206 23.8403C85.9767 23.7911 85.9351 23.7402 85.8968 23.6864C85.8503 23.5922 85.8092 23.4952 85.772 23.3967C85.6841 23.0775 85.624 22.7513 85.5808 22.423C85.5761 22.3714 85.5713 22.3199 85.5672 22.2683C85.774 21.9704 85.9807 21.6725 86.1913 21.3775C86.8858 20.416 87.601 19.4694 88.3491 18.549C89.0502 17.6866 89.7782 16.8441 90.5557 16.0495C90.906 15.6913 91.2683 15.3447 91.6446 15.0138C92.1087 14.6241 92.604 14.2577 93.148 13.9911C93.3262 13.9214 93.5106 13.8686 93.6997 13.8426C93.762 13.8466 93.8236 13.8552 93.8843 13.8681C93.9155 13.8851 93.9464 13.9027 93.976 13.9226C93.997 13.9471 94.0177 13.9717 94.0371 13.9976C94.0596 14.0448 94.0804 14.0925 94.0998 14.141C94.119 14.2174 94.136 14.2944 94.1501 14.3719C94.152 14.4196 94.1528 14.4675 94.1528 14.5152C94.147 14.5562 94.1401 14.5973 94.1329 14.6382C94.1116 14.704 94.0875 14.7691 94.0628 14.8336C93.8103 15.3179 93.4844 15.7768 93.192 16.2325C92.8191 16.8134 92.4383 17.3894 92.0487 17.9592C91.8224 18.2901 91.592 18.6182 91.3591 18.9446C90.4917 20.1431 89.5786 21.3186 88.5468 22.38ZM99.1161 20.7409C99.109 20.7561 99.1017 20.7713 99.0946 20.7863C99.0967 20.7773 99.099 20.7684 99.1011 20.7598C99.2177 20.482 99.1682 20.6313 99.1161 20.7409ZM99.0445 20.8823C99.0009 20.9669 98.9542 21.0497 98.9044 21.1306C98.7256 21.3705 98.5263 21.5942 98.3123 21.8034C97.8227 22.2368 97.2813 22.6113 96.7102 22.9286C96.5628 23.0106 96.4123 23.0867 96.2608 23.1611C95.8784 23.3345 95.4828 23.4861 95.0771 23.5964C95.3553 23.2899 95.6453 22.9941 95.9384 22.7052C96.1558 22.491 96.3784 22.282 96.6019 22.0743C97.3528 21.3893 98.1262 20.7288 98.9149 20.0859C98.9587 20.3512 99.0036 20.6164 99.0445 20.8823ZM124.465 17.8956C124.452 17.9309 124.44 17.9666 124.425 18.0015C124.298 18.2892 124.37 18.1177 124.465 17.8956Z" fill="white"></path>
<path d="M134.607 7.36559C134.701 7.27027 134.806 7.14847 134.935 7.0055C135.065 6.86252 135.194 6.71425 135.335 6.55538C135.47 6.39652 135.599 6.24295 135.716 6.09998C135.834 5.957 135.934 5.82991 136.016 5.724C136.098 5.62338 136.139 5.55454 136.151 5.51748C136.163 5.48041 136.169 5.44864 136.169 5.42216C136.169 5.32154 136.092 5.26859 135.94 5.26859C135.728 5.26859 135.458 5.32684 135.135 5.44334L135.141 5.491C135.141 5.51748 135.123 5.58102 135.082 5.68693C135.047 5.79813 135 5.93582 134.941 6.09998C134.795 6.5395 134.683 6.96313 134.607 7.36559ZM134.137 9.06013C134.407 9.06013 134.677 8.97011 134.947 8.79006C135.217 8.61002 135.476 8.36113 135.722 8.04341C135.195 8.22762 134.814 8.64906 134.489 8.79536L134.407 8.80595C134.19 8.80595 134.037 8.67356 133.955 8.41409C133.89 8.22875 133.855 8.00104 133.855 7.73097C133.855 7.2332 133.919 6.73543 134.055 6.24295C134.125 5.94111 134.207 5.68693 134.307 5.47511C134.407 5.26859 134.495 5.14679 134.583 5.10973L134.577 5.06736C134.577 5.03559 134.595 5.00911 134.636 4.98264C134.689 4.94557 134.824 4.9032 135.029 4.85554C135.223 4.82907 135.393 4.81848 135.54 4.81848C135.769 4.81848 135.981 4.84495 136.169 4.89261C136.38 4.95616 136.533 5.06207 136.638 5.21034C136.697 5.30566 136.727 5.40627 136.727 5.50159C136.727 5.81402 136.486 6.25354 136.004 6.81486C135.81 7.03197 135.587 7.27556 135.329 7.54563L135.734 7.43443C135.881 7.39736 136.028 7.38147 136.169 7.38147C136.31 7.14318 136.433 6.89959 136.55 6.656C136.768 6.17941 136.926 5.75048 137.014 5.3745C137.044 5.22093 137.061 5.08325 137.061 4.97204C137.038 4.69139 136.938 4.50075 136.762 4.38954C136.65 4.326 136.509 4.29423 136.339 4.29423C136.145 4.29423 135.934 4.33659 135.693 4.42132C135.405 4.52193 135.117 4.65961 134.824 4.84495C134.53 5.03029 134.278 5.22623 134.072 5.43804C133.837 5.67104 133.673 5.88286 133.591 6.0735C133.35 6.77779 133.215 7.38147 133.197 7.87395C133.197 8.06459 133.209 8.22345 133.238 8.35584C133.297 8.64179 133.438 8.84302 133.673 8.95952C133.802 9.02836 133.955 9.06013 134.137 9.06013ZM134.489 9.66381C134.26 9.66381 134.043 9.63204 133.831 9.57379C133.497 9.48377 133.209 9.3249 132.956 9.0972C132.692 8.8589 132.504 8.55177 132.393 8.17579C132.31 7.9322 132.275 7.66743 132.275 7.38677C132.275 7.20672 132.287 7.01079 132.322 6.80957C132.287 6.79897 132.252 6.78838 132.222 6.7725C132.134 6.72484 132.087 6.63481 132.087 6.51302C132.087 6.31179 132.199 6.04702 132.422 5.71341C132.592 5.45923 132.81 5.20504 133.08 4.94557C133.344 4.68609 133.643 4.45839 133.978 4.25186C134.536 3.91295 135.094 3.7435 135.652 3.7435C135.893 3.7435 136.116 3.75939 136.333 3.80175C136.956 3.91825 137.396 4.13007 137.649 4.4425C137.766 4.58548 137.825 4.76023 137.825 4.96675V5.06736C137.742 5.88286 137.543 6.656 137.232 7.39206C137.05 7.82629 136.826 8.20756 136.562 8.54647C135.981 9.29313 135.288 9.66381 134.489 9.66381Z" fill="white"></path>
<path d="M129.119 26.3712C128.276 26.2976 127.413 26.304 126.581 26.4136C126.261 26.4558 125.987 26.6188 125.805 26.8139C125.601 27.0344 125.466 27.3648 125.487 27.637C125.506 27.8883 125.58 28.1764 125.826 28.366C126.04 28.5316 126.322 28.6474 126.639 28.6057C127.1 28.545 127.567 28.5173 128.036 28.5193C128.217 28.526 128.397 28.5359 128.577 28.5516C128.903 28.5801 129.183 28.514 129.428 28.3514C129.686 28.1793 129.886 27.8862 129.938 27.6297C129.992 27.3619 129.992 27.0566 129.81 26.8095C129.667 26.614 129.438 26.3989 129.119 26.3712Z" fill="white"></path>
</svg>